P2
# a secret image
5 5
245
0     0  112    0   0
0   213    0    32  0
123   0    0    0  31   
0   221    0   12   0         
0     0  212    0   0
